<svg width="64" height="64" viewBox="0 0 64 64" fill="none" xmlns="http://www.w3.org/2000/svg">
  <defs>
    <linearGradient id="faviconGold" x1="9" y1="7" x2="55" y2="57" gradientUnits="userSpaceOnUse">
      <stop offset="0" stop-color="#FFF3A6" />
      <stop offset="0.45" stop-color="#E8CF6C" />
      <stop offset="1" stop-color="#B78C2D" />
    </linearGradient>
  </defs>
  <path
    d="M5 55V14L14 20V6L32 17L50 6V20L59 14V55H50V30L32 42L14 30V55H5Z"
    stroke="#6F561E"
    stroke-width="1.2"
    stroke-linejoin="miter"
  />
  <path
    d="M9 51V20L16 24V17L32 27L48 17V24L55 20V51H50V31L32 43L14 31V51H9Z"
    stroke="url(#faviconGold)"
    stroke-width="3.6"
    stroke-linejoin="miter"
    stroke-linecap="square"
  />
  <path
    d="M16 24L32 40L48 24M18 52L32 36L46 52"
    stroke="#F0DB75"
    stroke-width="2.6"
    stroke-linejoin="miter"
    stroke-linecap="square"
  />
  <path
    d="M16 24L32 40L48 24M18 52L32 36L46 52"
    stroke="#6F561E"
    stroke-width="0.65"
    stroke-linejoin="miter"
    stroke-linecap="square"
  />
</svg>
