<svg width="64" height="64" viewBox="0 0 64 64" fill="none" xmlns="http://www.w3.org/2000/svg">
  <rect width="64" height="64" rx="12" fill="#053F2B" />
  <defs>
    <linearGradient id="faviconGold" x1="14" y1="9" x2="52" y2="55" gradientUnits="userSpaceOnUse">
      <stop offset="0" stop-color="#F0CF74" />
      <stop offset="0.52" stop-color="#D8AE53" />
      <stop offset="1" stop-color="#BD8F38" />
    </linearGradient>
  </defs>
  <g fill="url(#faviconGold)">
    <path d="M5 56V13l11 7V4l16 12L48 4v16l11-7v43H48V31L32 44 16 31v25H5Zm6-6h2V19l-2-1v32Zm10 0h3V26l8 7 8-7v24h3V18L32 26 21 18v32Zm27 0h5V18l-5 2v30Z" />
    <path d="m15 48 17-13 17 13v7L32 42 15 55v-7Z" />
  </g>
</svg>
