<svg width="96" height="96" viewBox="0 0 96 96" fill="none" xmlns="http://www.w3.org/2000/svg" role="img" aria-labelledby="title desc">
  <title id="title">Milestone Development logo mark</title>
  <desc id="desc">Gold geometric architectural M mark.</desc>
  <defs>
    <linearGradient id="markGold" x1="20" y1="14" x2="78" y2="82" gradientUnits="userSpaceOnUse">
      <stop offset="0" stop-color="#F0CF74" />
      <stop offset="0.52" stop-color="#D8AE53" />
      <stop offset="1" stop-color="#BD8F38" />
    </linearGradient>
    <filter id="markShadow" x="-6" y="-4" width="108" height="108" filterUnits="userSpaceOnUse" color-interpolation-filters="sRGB">
      <feDropShadow dx="0" dy="2" stdDeviation="2" flood-color="#001E16" flood-opacity="0.28" />
    </filter>
  </defs>
  <g fill="url(#markGold)" filter="url(#markShadow)">
    <path d="M5 84V20l16 11V5l27 20L75 5v26l16-11v64H75V45L48 65 21 45v39H5Zm8-8h3V28l-3-2v50Zm15 0h4V37l16 12 16-12v39h4V26l-20 15-20-15v50Zm47 0h8V26l-8 5v45Z" />
    <path d="m20 72 28-20 28 20v10L48 62 20 82V72Z" />
  </g>
</svg>
