<svg width="560" height="140" viewBox="0 0 560 140" fill="none" xmlns="http://www.w3.org/2000/svg" role="img" aria-labelledby="title desc">
  <title id="title">Milestone Development</title>
  <desc id="desc">Milestone Development logo with a geometric architectural M mark and gold wordmark.</desc>
  <defs>
    <linearGradient id="goldStroke" x1="166" y1="20" x2="396" y2="96" gradientUnits="userSpaceOnUse">
      <stop offset="0" stop-color="#F2E08E" />
      <stop offset="1" stop-color="#C5A84C" />
    </linearGradient>
  </defs>
  <path
    d="M172 92V26L218 54L280 18L342 54L388 26V92H364V51L280 101L196 51V92H172Z"
    fill="none"
    stroke="#7E6627"
    stroke-width="1.4"
    stroke-linejoin="round"
  />
  <path
    d="M188 86V39L219 57L280 27L341 57L372 39V86H356V55L280 98L204 55V86H188Z"
    fill="none"
    stroke="url(#goldStroke)"
    stroke-width="8"
    stroke-linejoin="round"
    stroke-linecap="square"
  />
  <path d="M218 57L280 93L342 57" fill="none" stroke="#D8BF63" stroke-width="8" stroke-linecap="square" />
  <path d="M280 18V101" fill="none" stroke="url(#goldStroke)" stroke-width="6" stroke-linecap="square" opacity="0.95" />
  <g transform="translate(0 0)">
    <text
      x="280"
      y="114"
      text-anchor="middle"
      fill="#F3E08E"
      stroke="#86692B"
      stroke-width="1.3"
      paint-order="stroke fill"
      font-family="Arial, Helvetica, sans-serif"
      font-size="34"
      font-weight="900"
      letter-spacing="2.5"
    >
      MILESTONE
    </text>
    <text
      x="280"
      y="131"
      text-anchor="middle"
      fill="#E8D16B"
      stroke="#86692B"
      stroke-width="1"
      paint-order="stroke fill"
      font-family="Arial, Helvetica, sans-serif"
      font-size="18"
      font-weight="800"
      letter-spacing="4"
    >
      DEVELOPMENT
    </text>
  </g>
</svg>
