<svg width="760" height="190" viewBox="0 0 760 190" fill="none" xmlns="http://www.w3.org/2000/svg" role="img" aria-labelledby="title desc">
  <title id="title">Milestone Development</title>
  <desc id="desc">Gold Milestone Development logo with a geometric architectural M mark.</desc>
  <defs>
    <linearGradient id="gold" x1="18" y1="18" x2="720" y2="172" gradientUnits="userSpaceOnUse">
      <stop offset="0" stop-color="#F0CF74" />
      <stop offset="0.52" stop-color="#D8AE53" />
      <stop offset="1" stop-color="#BD8F38" />
    </linearGradient>
    <filter id="softShadow" x="-8" y="-8" width="196" height="206" filterUnits="userSpaceOnUse" color-interpolation-filters="sRGB">
      <feDropShadow dx="0" dy="3" stdDeviation="3" flood-color="#001E16" flood-opacity="0.32" />
    </filter>
  </defs>
  <g fill="url(#gold)">
    <g filter="url(#softShadow)">
      <path d="M10 168V40l32 22V10l54 40 54-40v52l32-22v128h-32V90l-54 40-54-40v78H10Zm16-16h6V56l-6-4v100Zm30 0h8V74l32 24 32-24v78h8V52L96 82 56 52v100Zm94 0h16V52l-16 10v90Z" />
      <path d="m40 144 56-40 56 40v20l-56-40-56 40v-20Z" />
    </g>
    <text x="470" y="100" text-anchor="middle" font-family="Montserrat, 'Aptos Display', 'Segoe UI', Arial, sans-serif" font-size="60" font-weight="900" letter-spacing="8">MILESTONE</text>
    <text x="470" y="145" text-anchor="middle" font-family="Montserrat, 'Aptos Display', 'Segoe UI', Arial, sans-serif" font-size="31" font-weight="800" letter-spacing="9">DEVELOPMENT</text>
  </g>
</svg>
